<mxfile host="app.diagrams.net" agent="Mozilla/5.0 (X11; Linux x86_64) AppleWebKit/537.36 (KHTML, like Gecko) Chrome/128.0.0.0 Safari/537.36" version="24.8.3">
  <diagram name="Page-1" id="KgoYQYOyyWXWBF0dz0mT">
    <mxGraphModel dx="321" dy="237" grid="1" gridSize="10" guides="1" tooltips="1" connect="1" arrows="1" fold="1" page="1" pageScale="1" pageWidth="850" pageHeight="1100" math="0" shadow="0">
      <root>
        <mxCell id="0" />
        <mxCell id="1" parent="0" />
        <mxCell id="fPppr7q9K9Kb0jlmJFAS-11" value="" style="rounded=0;whiteSpace=wrap;html=1;" parent="1" vertex="1">
          <mxGeometry x="100" y="230" width="120" height="90" as="geometry" />
        </mxCell>
        <mxCell id="fPppr7q9K9Kb0jlmJFAS-13" value="" style="rounded=0;whiteSpace=wrap;html=1;" parent="1" vertex="1">
          <mxGeometry x="100" y="290" width="120" height="30" as="geometry" />
        </mxCell>
        <mxCell id="fPppr7q9K9Kb0jlmJFAS-14" value="Пользователь" style="text;html=1;align=center;verticalAlign=middle;whiteSpace=wrap;rounded=0;" parent="1" vertex="1">
          <mxGeometry x="100" y="230" width="120" height="60" as="geometry" />
        </mxCell>
        <mxCell id="fPppr7q9K9Kb0jlmJFAS-15" value="" style="endArrow=none;html=1;rounded=0;exitX=0;exitY=0.25;exitDx=0;exitDy=0;entryX=0.125;entryY=0.02;entryDx=0;entryDy=0;entryPerimeter=0;" parent="1" source="fPppr7q9K9Kb0jlmJFAS-14" target="fPppr7q9K9Kb0jlmJFAS-14" edge="1">
          <mxGeometry width="50" height="50" relative="1" as="geometry">
            <mxPoint x="70" y="260" as="sourcePoint" />
            <mxPoint x="120" y="210" as="targetPoint" />
          </mxGeometry>
        </mxCell>
        <mxCell id="fPppr7q9K9Kb0jlmJFAS-44" value="" style="rounded=0;whiteSpace=wrap;html=1;" parent="1" vertex="1">
          <mxGeometry x="550" y="360" width="120" height="90" as="geometry" />
        </mxCell>
        <mxCell id="fPppr7q9K9Kb0jlmJFAS-45" value="А1.1.4" style="rounded=0;whiteSpace=wrap;html=1;" parent="1" vertex="1">
          <mxGeometry x="550" y="420" width="60" height="30" as="geometry" />
        </mxCell>
        <mxCell id="fPppr7q9K9Kb0jlmJFAS-46" value="" style="rounded=0;whiteSpace=wrap;html=1;" parent="1" vertex="1">
          <mxGeometry x="610" y="420" width="60" height="30" as="geometry" />
        </mxCell>
        <mxCell id="fPppr7q9K9Kb0jlmJFAS-50" style="edgeStyle=orthogonalEdgeStyle;rounded=0;orthogonalLoop=1;jettySize=auto;html=1;exitX=1;exitY=0.5;exitDx=0;exitDy=0;endArrow=doubleBlock;endFill=1;" parent="1" edge="1">
          <mxGeometry relative="1" as="geometry">
            <mxPoint x="1050" y="389.7692307692308" as="targetPoint" />
            <mxPoint x="950" y="390" as="sourcePoint" />
          </mxGeometry>
        </mxCell>
        <mxCell id="fPppr7q9K9Kb0jlmJFAS-51" value="Токен&lt;div&gt;аутентификации&lt;/div&gt;" style="edgeLabel;html=1;align=center;verticalAlign=middle;resizable=0;points=[];" parent="fPppr7q9K9Kb0jlmJFAS-50" vertex="1" connectable="0">
          <mxGeometry x="-0.0798" y="1" relative="1" as="geometry">
            <mxPoint y="-19" as="offset" />
          </mxGeometry>
        </mxCell>
        <mxCell id="u9R9Op4vLzUyVNkVK-dO-16" style="edgeStyle=orthogonalEdgeStyle;rounded=0;orthogonalLoop=1;jettySize=auto;html=1;exitX=1;exitY=0.75;exitDx=0;exitDy=0;entryX=0;entryY=0.75;entryDx=0;entryDy=0;" edge="1" parent="1" source="fPppr7q9K9Kb0jlmJFAS-47" target="u9R9Op4vLzUyVNkVK-dO-14">
          <mxGeometry relative="1" as="geometry" />
        </mxCell>
        <mxCell id="fPppr7q9K9Kb0jlmJFAS-47" value="Отправка формы" style="text;html=1;align=center;verticalAlign=middle;whiteSpace=wrap;rounded=0;" parent="1" vertex="1">
          <mxGeometry x="550" y="360" width="120" height="60" as="geometry" />
        </mxCell>
        <mxCell id="fPppr7q9K9Kb0jlmJFAS-48" value="" style="endArrow=none;html=1;rounded=0;exitX=0;exitY=0.25;exitDx=0;exitDy=0;entryX=0.125;entryY=0.02;entryDx=0;entryDy=0;entryPerimeter=0;" parent="1" source="fPppr7q9K9Kb0jlmJFAS-47" target="fPppr7q9K9Kb0jlmJFAS-47" edge="1">
          <mxGeometry width="50" height="50" relative="1" as="geometry">
            <mxPoint x="520" y="390" as="sourcePoint" />
            <mxPoint x="570" y="340" as="targetPoint" />
          </mxGeometry>
        </mxCell>
        <mxCell id="fPppr7q9K9Kb0jlmJFAS-52" value="" style="rounded=0;whiteSpace=wrap;html=1;" parent="1" vertex="1">
          <mxGeometry x="100" y="360" width="120" height="90" as="geometry" />
        </mxCell>
        <mxCell id="fPppr7q9K9Kb0jlmJFAS-53" value="А1.1.1" style="rounded=0;whiteSpace=wrap;html=1;" parent="1" vertex="1">
          <mxGeometry x="100" y="420" width="60" height="30" as="geometry" />
        </mxCell>
        <mxCell id="fPppr7q9K9Kb0jlmJFAS-54" value="" style="rounded=0;whiteSpace=wrap;html=1;" parent="1" vertex="1">
          <mxGeometry x="160" y="420" width="60" height="30" as="geometry" />
        </mxCell>
        <mxCell id="u9R9Op4vLzUyVNkVK-dO-5" style="edgeStyle=orthogonalEdgeStyle;rounded=0;orthogonalLoop=1;jettySize=auto;html=1;exitX=1;exitY=0.5;exitDx=0;exitDy=0;entryX=0;entryY=0.25;entryDx=0;entryDy=0;" edge="1" parent="1" source="fPppr7q9K9Kb0jlmJFAS-55" target="u9R9Op4vLzUyVNkVK-dO-1">
          <mxGeometry relative="1" as="geometry" />
        </mxCell>
        <mxCell id="fPppr7q9K9Kb0jlmJFAS-55" value="Открытие формы аутентификации" style="text;html=1;align=center;verticalAlign=middle;whiteSpace=wrap;rounded=0;" parent="1" vertex="1">
          <mxGeometry x="100" y="360" width="120" height="60" as="geometry" />
        </mxCell>
        <mxCell id="fPppr7q9K9Kb0jlmJFAS-56" value="" style="endArrow=none;html=1;rounded=0;exitX=0;exitY=0.25;exitDx=0;exitDy=0;entryX=0.125;entryY=0.02;entryDx=0;entryDy=0;entryPerimeter=0;" parent="1" source="fPppr7q9K9Kb0jlmJFAS-55" target="fPppr7q9K9Kb0jlmJFAS-55" edge="1">
          <mxGeometry width="50" height="50" relative="1" as="geometry">
            <mxPoint x="70" y="390" as="sourcePoint" />
            <mxPoint x="120" y="340" as="targetPoint" />
          </mxGeometry>
        </mxCell>
        <mxCell id="fPppr7q9K9Kb0jlmJFAS-69" style="edgeStyle=orthogonalEdgeStyle;rounded=0;orthogonalLoop=1;jettySize=auto;html=1;exitX=0.5;exitY=0;exitDx=0;exitDy=0;entryX=0.5;entryY=1;entryDx=0;entryDy=0;startArrow=none;startFill=0;endArrow=none;endFill=0;dashed=1;" parent="1" source="fPppr7q9K9Kb0jlmJFAS-55" target="fPppr7q9K9Kb0jlmJFAS-13" edge="1">
          <mxGeometry relative="1" as="geometry">
            <mxPoint x="276" y="361" as="sourcePoint" />
            <mxPoint x="276" y="321" as="targetPoint" />
          </mxGeometry>
        </mxCell>
        <mxCell id="-wgVbw5N3P-1iWSw_kXJ-1" value="" style="rounded=0;whiteSpace=wrap;html=1;" parent="1" vertex="1">
          <mxGeometry x="330" y="230" width="120" height="90" as="geometry" />
        </mxCell>
        <mxCell id="-wgVbw5N3P-1iWSw_kXJ-2" value="А1.1.2" style="rounded=0;whiteSpace=wrap;html=1;" parent="1" vertex="1">
          <mxGeometry x="330" y="290" width="60" height="30" as="geometry" />
        </mxCell>
        <mxCell id="-wgVbw5N3P-1iWSw_kXJ-3" value="" style="rounded=0;whiteSpace=wrap;html=1;" parent="1" vertex="1">
          <mxGeometry x="390" y="290" width="60" height="30" as="geometry" />
        </mxCell>
        <mxCell id="u9R9Op4vLzUyVNkVK-dO-10" style="edgeStyle=orthogonalEdgeStyle;rounded=0;orthogonalLoop=1;jettySize=auto;html=1;exitX=1;exitY=0.5;exitDx=0;exitDy=0;entryX=0;entryY=0.25;entryDx=0;entryDy=0;" edge="1" parent="1" source="-wgVbw5N3P-1iWSw_kXJ-5" target="u9R9Op4vLzUyVNkVK-dO-3">
          <mxGeometry relative="1" as="geometry" />
        </mxCell>
        <mxCell id="-wgVbw5N3P-1iWSw_kXJ-5" value="Ввод адреса электронной почты" style="text;html=1;align=center;verticalAlign=middle;whiteSpace=wrap;rounded=0;" parent="1" vertex="1">
          <mxGeometry x="330" y="230" width="120" height="60" as="geometry" />
        </mxCell>
        <mxCell id="-wgVbw5N3P-1iWSw_kXJ-6" value="" style="endArrow=none;html=1;rounded=0;exitX=0;exitY=0.25;exitDx=0;exitDy=0;entryX=0.125;entryY=0.02;entryDx=0;entryDy=0;entryPerimeter=0;" parent="1" source="-wgVbw5N3P-1iWSw_kXJ-5" target="-wgVbw5N3P-1iWSw_kXJ-5" edge="1">
          <mxGeometry width="50" height="50" relative="1" as="geometry">
            <mxPoint x="300" y="260" as="sourcePoint" />
            <mxPoint x="350" y="210" as="targetPoint" />
          </mxGeometry>
        </mxCell>
        <mxCell id="-wgVbw5N3P-1iWSw_kXJ-7" value="" style="rounded=0;whiteSpace=wrap;html=1;" parent="1" vertex="1">
          <mxGeometry x="330" y="490" width="120" height="90" as="geometry" />
        </mxCell>
        <mxCell id="-wgVbw5N3P-1iWSw_kXJ-8" value="А1.1.3" style="rounded=0;whiteSpace=wrap;html=1;" parent="1" vertex="1">
          <mxGeometry x="330" y="550" width="60" height="30" as="geometry" />
        </mxCell>
        <mxCell id="-wgVbw5N3P-1iWSw_kXJ-9" value="" style="rounded=0;whiteSpace=wrap;html=1;" parent="1" vertex="1">
          <mxGeometry x="390" y="550" width="60" height="30" as="geometry" />
        </mxCell>
        <mxCell id="u9R9Op4vLzUyVNkVK-dO-8" style="edgeStyle=orthogonalEdgeStyle;rounded=0;orthogonalLoop=1;jettySize=auto;html=1;exitX=1;exitY=0.75;exitDx=0;exitDy=0;entryX=0;entryY=0.5;entryDx=0;entryDy=0;" edge="1" parent="1" source="-wgVbw5N3P-1iWSw_kXJ-11" target="u9R9Op4vLzUyVNkVK-dO-3">
          <mxGeometry relative="1" as="geometry" />
        </mxCell>
        <mxCell id="-wgVbw5N3P-1iWSw_kXJ-11" value="Ввод пароля" style="text;html=1;align=center;verticalAlign=middle;whiteSpace=wrap;rounded=0;" parent="1" vertex="1">
          <mxGeometry x="330" y="490" width="120" height="60" as="geometry" />
        </mxCell>
        <mxCell id="-wgVbw5N3P-1iWSw_kXJ-12" value="" style="endArrow=none;html=1;rounded=0;exitX=0;exitY=0.25;exitDx=0;exitDy=0;entryX=0.125;entryY=0.02;entryDx=0;entryDy=0;entryPerimeter=0;" parent="1" source="-wgVbw5N3P-1iWSw_kXJ-11" target="-wgVbw5N3P-1iWSw_kXJ-11" edge="1">
          <mxGeometry width="50" height="50" relative="1" as="geometry">
            <mxPoint x="300" y="520" as="sourcePoint" />
            <mxPoint x="350" y="470" as="targetPoint" />
          </mxGeometry>
        </mxCell>
        <mxCell id="u9R9Op4vLzUyVNkVK-dO-6" style="edgeStyle=orthogonalEdgeStyle;rounded=0;orthogonalLoop=1;jettySize=auto;html=1;exitX=1;exitY=0.75;exitDx=0;exitDy=0;entryX=0;entryY=0.75;entryDx=0;entryDy=0;" edge="1" parent="1" source="u9R9Op4vLzUyVNkVK-dO-1" target="-wgVbw5N3P-1iWSw_kXJ-11">
          <mxGeometry relative="1" as="geometry" />
        </mxCell>
        <mxCell id="u9R9Op4vLzUyVNkVK-dO-7" style="edgeStyle=orthogonalEdgeStyle;rounded=0;orthogonalLoop=1;jettySize=auto;html=1;exitX=1;exitY=0.25;exitDx=0;exitDy=0;entryX=0;entryY=0.5;entryDx=0;entryDy=0;" edge="1" parent="1" source="u9R9Op4vLzUyVNkVK-dO-1" target="-wgVbw5N3P-1iWSw_kXJ-5">
          <mxGeometry relative="1" as="geometry" />
        </mxCell>
        <mxCell id="u9R9Op4vLzUyVNkVK-dO-1" value="&amp;amp;" style="rounded=0;whiteSpace=wrap;html=1;" vertex="1" parent="1">
          <mxGeometry x="240" y="380" width="50" height="40" as="geometry" />
        </mxCell>
        <mxCell id="u9R9Op4vLzUyVNkVK-dO-2" value="" style="endArrow=none;html=1;rounded=0;entryX=0.25;entryY=0;entryDx=0;entryDy=0;exitX=0.25;exitY=1;exitDx=0;exitDy=0;" edge="1" parent="1" source="u9R9Op4vLzUyVNkVK-dO-1" target="u9R9Op4vLzUyVNkVK-dO-1">
          <mxGeometry width="50" height="50" relative="1" as="geometry">
            <mxPoint x="240" y="500" as="sourcePoint" />
            <mxPoint x="290" y="450" as="targetPoint" />
          </mxGeometry>
        </mxCell>
        <mxCell id="u9R9Op4vLzUyVNkVK-dO-9" style="edgeStyle=orthogonalEdgeStyle;rounded=0;orthogonalLoop=1;jettySize=auto;html=1;exitX=1;exitY=0.5;exitDx=0;exitDy=0;entryX=0;entryY=0.75;entryDx=0;entryDy=0;" edge="1" parent="1" source="u9R9Op4vLzUyVNkVK-dO-3" target="fPppr7q9K9Kb0jlmJFAS-47">
          <mxGeometry relative="1" as="geometry" />
        </mxCell>
        <mxCell id="u9R9Op4vLzUyVNkVK-dO-3" value="&amp;amp;" style="rounded=0;whiteSpace=wrap;html=1;" vertex="1" parent="1">
          <mxGeometry x="480" y="385" width="50" height="40" as="geometry" />
        </mxCell>
        <mxCell id="u9R9Op4vLzUyVNkVK-dO-4" value="" style="endArrow=none;html=1;rounded=0;entryX=0.25;entryY=0;entryDx=0;entryDy=0;exitX=0.25;exitY=1;exitDx=0;exitDy=0;" edge="1" source="u9R9Op4vLzUyVNkVK-dO-3" target="u9R9Op4vLzUyVNkVK-dO-3" parent="1">
          <mxGeometry width="50" height="50" relative="1" as="geometry">
            <mxPoint x="200" y="515" as="sourcePoint" />
            <mxPoint x="250" y="465" as="targetPoint" />
          </mxGeometry>
        </mxCell>
        <mxCell id="u9R9Op4vLzUyVNkVK-dO-11" value="" style="rounded=0;whiteSpace=wrap;html=1;" vertex="1" parent="1">
          <mxGeometry x="690" y="360" width="120" height="90" as="geometry" />
        </mxCell>
        <mxCell id="u9R9Op4vLzUyVNkVK-dO-12" value="А1.1.5" style="rounded=0;whiteSpace=wrap;html=1;" vertex="1" parent="1">
          <mxGeometry x="690" y="420" width="60" height="30" as="geometry" />
        </mxCell>
        <mxCell id="u9R9Op4vLzUyVNkVK-dO-13" value="" style="rounded=0;whiteSpace=wrap;html=1;" vertex="1" parent="1">
          <mxGeometry x="750" y="420" width="60" height="30" as="geometry" />
        </mxCell>
        <mxCell id="u9R9Op4vLzUyVNkVK-dO-22" style="edgeStyle=orthogonalEdgeStyle;rounded=0;orthogonalLoop=1;jettySize=auto;html=1;exitX=1;exitY=0.75;exitDx=0;exitDy=0;entryX=0;entryY=0.75;entryDx=0;entryDy=0;" edge="1" parent="1" source="u9R9Op4vLzUyVNkVK-dO-14" target="u9R9Op4vLzUyVNkVK-dO-20">
          <mxGeometry relative="1" as="geometry" />
        </mxCell>
        <mxCell id="u9R9Op4vLzUyVNkVK-dO-14" value="Валидация введённых данных" style="text;html=1;align=center;verticalAlign=middle;whiteSpace=wrap;rounded=0;" vertex="1" parent="1">
          <mxGeometry x="690" y="360" width="120" height="60" as="geometry" />
        </mxCell>
        <mxCell id="u9R9Op4vLzUyVNkVK-dO-15" value="" style="endArrow=none;html=1;rounded=0;exitX=0;exitY=0.25;exitDx=0;exitDy=0;entryX=0.125;entryY=0.02;entryDx=0;entryDy=0;entryPerimeter=0;" edge="1" source="u9R9Op4vLzUyVNkVK-dO-14" target="u9R9Op4vLzUyVNkVK-dO-14" parent="1">
          <mxGeometry width="50" height="50" relative="1" as="geometry">
            <mxPoint x="660" y="390" as="sourcePoint" />
            <mxPoint x="710" y="340" as="targetPoint" />
          </mxGeometry>
        </mxCell>
        <mxCell id="u9R9Op4vLzUyVNkVK-dO-17" value="" style="rounded=0;whiteSpace=wrap;html=1;" vertex="1" parent="1">
          <mxGeometry x="830" y="360" width="120" height="90" as="geometry" />
        </mxCell>
        <mxCell id="u9R9Op4vLzUyVNkVK-dO-18" value="А1.1.6" style="rounded=0;whiteSpace=wrap;html=1;" vertex="1" parent="1">
          <mxGeometry x="830" y="420" width="60" height="30" as="geometry" />
        </mxCell>
        <mxCell id="u9R9Op4vLzUyVNkVK-dO-19" value="" style="rounded=0;whiteSpace=wrap;html=1;" vertex="1" parent="1">
          <mxGeometry x="890" y="420" width="60" height="30" as="geometry" />
        </mxCell>
        <mxCell id="u9R9Op4vLzUyVNkVK-dO-20" value="Формирование токена аутентификации" style="text;html=1;align=center;verticalAlign=middle;whiteSpace=wrap;rounded=0;" vertex="1" parent="1">
          <mxGeometry x="830" y="360" width="120" height="60" as="geometry" />
        </mxCell>
        <mxCell id="u9R9Op4vLzUyVNkVK-dO-21" value="" style="endArrow=none;html=1;rounded=0;exitX=0;exitY=0.25;exitDx=0;exitDy=0;entryX=0.125;entryY=0.02;entryDx=0;entryDy=0;entryPerimeter=0;" edge="1" source="u9R9Op4vLzUyVNkVK-dO-20" target="u9R9Op4vLzUyVNkVK-dO-20" parent="1">
          <mxGeometry width="50" height="50" relative="1" as="geometry">
            <mxPoint x="800" y="390" as="sourcePoint" />
            <mxPoint x="850" y="340" as="targetPoint" />
          </mxGeometry>
        </mxCell>
        <mxCell id="u9R9Op4vLzUyVNkVK-dO-23" value="" style="rounded=0;whiteSpace=wrap;html=1;" vertex="1" parent="1">
          <mxGeometry x="690" y="230" width="120" height="90" as="geometry" />
        </mxCell>
        <mxCell id="u9R9Op4vLzUyVNkVK-dO-24" value="" style="rounded=0;whiteSpace=wrap;html=1;" vertex="1" parent="1">
          <mxGeometry x="690" y="290" width="120" height="30" as="geometry" />
        </mxCell>
        <mxCell id="u9R9Op4vLzUyVNkVK-dO-25" value="Правила валидации данных аутентификации" style="text;html=1;align=center;verticalAlign=middle;whiteSpace=wrap;rounded=0;" vertex="1" parent="1">
          <mxGeometry x="690" y="230" width="120" height="60" as="geometry" />
        </mxCell>
        <mxCell id="u9R9Op4vLzUyVNkVK-dO-26" value="" style="endArrow=none;html=1;rounded=0;exitX=0;exitY=0.25;exitDx=0;exitDy=0;entryX=0.125;entryY=0.02;entryDx=0;entryDy=0;entryPerimeter=0;" edge="1" source="u9R9Op4vLzUyVNkVK-dO-25" target="u9R9Op4vLzUyVNkVK-dO-25" parent="1">
          <mxGeometry width="50" height="50" relative="1" as="geometry">
            <mxPoint x="660" y="260" as="sourcePoint" />
            <mxPoint x="710" y="210" as="targetPoint" />
          </mxGeometry>
        </mxCell>
        <mxCell id="u9R9Op4vLzUyVNkVK-dO-27" style="edgeStyle=orthogonalEdgeStyle;rounded=0;orthogonalLoop=1;jettySize=auto;html=1;exitX=0.5;exitY=0;exitDx=0;exitDy=0;entryX=0.5;entryY=1;entryDx=0;entryDy=0;startArrow=none;startFill=0;endArrow=none;endFill=0;dashed=1;" edge="1" parent="1">
          <mxGeometry relative="1" as="geometry">
            <mxPoint x="750" y="360" as="sourcePoint" />
            <mxPoint x="750" y="320" as="targetPoint" />
          </mxGeometry>
        </mxCell>
      </root>
    </mxGraphModel>
  </diagram>
</mxfile>
